<svg width="240.000000" height="72.000000" viewBox="0 0 240 72" fill="none" xmlns="http://www.w3.org/2000/svg" xmlns:xlink="http://www.w3.org/1999/xlink">
	<desc>
			Created with Pixso.
	</desc>
	<defs>
		<clipPath id="clip5_25">
			<rect id="组合 160" width="160.000000" height="48.000000" transform="translate(40.000000 12.000000)" fill="white" fill-opacity="0"/>
		</clipPath>
	</defs>
	<rect id="画板 1" width="240.000000" height="72.000000" fill="#FFFFFF" fill-opacity="0"/>
	<rect id="矩形 1" width="240.000000" height="72.000000" fill="#C4C4C4" fill-opacity="0"/>
	<g clip-path="url(#clip5_25)">
		<mask id="mask5_27" mask-type="alpha" maskUnits="userSpaceOnUse" x="40.000000" y="12.000000" width="160.000000" height="48.000000">
			<rect id="AIlab_logo" x="40.000000" y="12.000000" width="160.000000" height="48.000000" fill="#000000" fill-opacity="1.000000"/>
		</mask>
		<g mask="url(#mask5_27)">
			<path id="path" d="M71.47 59.9L40 59.9C47.74 47.68 55.45 35.52 63.21 23.28C70.97 35.5 78.67 47.64 86.43 59.87C86.25 59.87 86.17 59.9 86.06 59.9C84.28 59.9 82.51 59.95 80.71 59.9C78.51 59.85 76.83 58.96 75.74 57.23C71.69 50.83 67.62 44.46 63.58 38.06C63.48 37.88 63.37 37.71 63.2 37.48C60.01 42.51 56.86 47.48 53.67 52.54C54.86 52.6 55.93 52.65 57 52.72C58.7 52.83 60.41 52.81 62.06 53.12C66.37 53.9 69.44 56.38 71.47 59.9Z" fill="#000000" fill-opacity="1.000000" fill-rule="nonzero"/>
			<path id="_合并" d="M66.44 18.25C66.36 18.37 66.33 18.51 66.26 18.65C66.33 18.79 66.36 18.92 66.43 19.02C67.66 20.97 68.87 22.91 70.12 24.84C70.54 25.48 70.79 25.48 71.21 24.84C72.44 22.92 73.67 21 74.86 19.04C74.99 18.84 74.97 18.45 74.86 18.24C73.66 16.29 72.44 14.38 71.21 12.46C70.81 11.82 70.54 11.82 70.12 12.46C68.89 14.38 67.66 16.32 66.44 18.25ZM101.15 60C99 59.9 96.83 59.93 94.7 59.66C92.73 59.4 91.31 58.25 90.31 56.67C88.55 53.9 86.79 51.13 85.03 48.36C82.86 44.94 80.71 41.48 78.54 38.06C77.12 35.84 75.69 33.61 74.28 31.39C74.12 31.13 73.93 30.89 73.82 30.62C73.75 30.48 73.74 30.25 73.82 30.12C75.18 27.96 76.55 25.82 77.91 23.66C77.98 23.56 78.06 23.48 78.14 23.37C85.85 35.53 93.55 47.66 101.23 59.79C101.19 59.85 101.18 59.93 101.15 60Z" fill="#F61B5B" fill-opacity="1.000000" fill-rule="evenodd"/>
			<path id="path" d="M132.53 13.66L137.31 12L137.31 32.87L132.53 34.78L132.53 13.66Z" fill="#F61B5B" fill-opacity="1.000000" fill-rule="nonzero"/>
			<path id="path" d="M115.56 41.56L108.19 41.56L109.74 37.96L126.91 37.96L125.56 41.56L119.71 41.56L115.56 41.56Z" fill="#000000" fill-opacity="1.000000" fill-rule="nonzero"/>
			<path id="path" d="M115.13 40.78L119.96 38.93L119.96 57.9L115.13 60L115.13 40.78Z" fill="#000000" fill-opacity="1.000000" fill-rule="nonzero"/>
			<path id="path" d="M184.84 56.86L185.93 53.12C187.39 54.54 190.67 56.27 192.49 56.27C194.65 56.27 195.77 55.29 195.77 53.8C195.77 52.2 194.51 51.69 192.65 50.86L189.9 49.63C187.8 48.75 185.69 46.99 185.69 43.83C185.69 40.32 188.68 37.58 192.84 37.58C195.26 37.58 197.66 38.59 199.34 40.36L197.26 43.07C195.93 41.93 194.57 41.28 192.84 41.28C191.02 41.28 189.88 42.12 189.88 43.53C189.88 45.07 191.35 45.64 193.12 46.4L195.84 47.56C198.35 48.65 200 50.33 200 53.45C200 56.99 197.18 60 192.39 60C189.63 60 186.86 58.87 184.84 56.86Z" fill="#000000" fill-opacity="1.000000" fill-rule="nonzero"/>
			<path id="path" d="M116.43 12L122.04 12L129.71 34.79L124.68 34.79L121.27 22.92C120.55 20.55 119.9 17.91 119.19 15.47C118.55 17.95 117.74 20.54 117.04 22.92L113.61 34.79L108.76 34.79L116.43 12Z" fill="#F61B5B" fill-opacity="1.000000" fill-rule="nonzero"/>
			<path id="path" d="M113.51 27.75L117.31 27.75C119.55 27.75 121.5 29.21 122.06 31.29L113.51 31.29L113.51 27.75Z" fill="#F61B5B" fill-opacity="1.000000" fill-rule="nonzero"/>
			<path id="path" d="M175.88 55.36L183.82 55.36L182.62 59.6L171.07 59.6L175.88 55.36Z" fill="#000000" fill-opacity="1.000000" fill-rule="nonzero"/>
			<path id="path" d="M171.05 38.87L175.88 37.04L175.88 59.59L171.05 59.59L171.05 38.87Z" fill="#000000" fill-opacity="1.000000" fill-rule="nonzero"/>
			<path id="path" d="M148.46 48.68C148.46 41.66 152.24 37.58 157.72 37.58C163.21 37.58 166.99 41.67 166.99 48.68C166.99 55.69 163.21 60 157.72 60C152.24 60 148.46 55.71 148.46 48.68ZM162.12 48.68C162.12 44.08 160.41 41.29 157.72 41.29C155.03 41.29 153.34 44.08 153.34 48.68C153.34 53.29 155.03 56.27 157.72 56.27C160.41 56.27 162.12 53.31 162.12 48.68Z" fill="#000000" fill-opacity="1.000000" fill-rule="nonzero"/>
			<path id="path" d="M126.91 48.68C126.91 41.66 130.67 37.58 136.17 37.58C141.66 37.58 145.44 41.67 145.44 48.68C145.44 55.69 141.66 60 136.17 60C130.67 60 126.91 55.71 126.91 48.68ZM140.57 48.68C140.57 44.08 138.86 41.29 136.17 41.29C133.48 41.29 131.78 44.08 131.78 48.68C131.78 53.29 133.48 56.27 136.17 56.27C138.86 56.27 140.57 53.31 140.57 48.68Z" fill="#000000" fill-opacity="1.000000" fill-rule="nonzero"/>
			<path id="path" d="M182.24 12L190.12 12C195.03 12 198.78 13.39 198.78 17.62C198.78 19.74 197.58 21.87 195.53 22.55C198.11 23.13 200 25.02 200 28.08C200 32.65 196.01 34.78 190.76 34.78L182.25 34.78L182.24 12ZM189.8 21.28C192.84 21.28 194.14 20.12 194.14 18.28C194.14 16.28 192.75 15.5 189.85 15.5L187 15.5L187 21.28L189.8 21.28ZM190.33 31.28C193.56 31.28 195.34 30.17 195.34 27.8C195.34 25.59 193.61 24.63 190.33 24.63L187 24.63L187 31.28L190.33 31.28Z" fill="#000000" fill-opacity="1.000000" fill-rule="nonzero"/>
			<path id="path" d="M166.12 12L171.74 12L179.4 34.79L174.38 34.79L170.97 22.92C170.25 20.55 169.6 17.91 168.89 15.47C168.25 17.95 167.43 20.54 166.73 22.92L163.31 34.79L158.46 34.79L166.12 12Z" fill="#000000" fill-opacity="1.000000" fill-rule="nonzero"/>
			<path id="path" d="M163.21 27.75L167 27.75C169.24 27.75 171.2 29.21 171.75 31.29L163.21 31.29L163.21 27.75Z" fill="#000000" fill-opacity="1.000000" fill-rule="nonzero"/>
			<path id="path" d="M147.96 30.97L157.67 30.97L156.47 34.79L143.17 34.79L147.96 30.97Z" fill="#000000" fill-opacity="1.000000" fill-rule="nonzero"/>
			<path id="path" d="M143.2 13.66L147.96 12L147.96 34.79L143.2 34.79L143.2 13.66Z" fill="#000000" fill-opacity="1.000000" fill-rule="nonzero"/>
		</g>
	</g>
</svg>
